# xmcd CD database file
#
# Track frame offsets:
#	150
#	12302
#	27566
#	39751
#	53146
#	65332
#	81285
#	93152
#	109192
#	123432
#	135623
#	150627
#
# Disc length: 2190 seconds
#
# Revision: 0
# Processed by: cddbd v1.5.2PL0 Copyright (c) Steve Scherf et al.
# Submitted via: ACXtractor (MTCDDB.DLL V2003.07.15)
#
DISCID=93088c0c
DTITLE=Chester Lester - Lonely Lady
DYEAR=0
DGENRE=Country
TTITLE0=It's Hard To You Gone
TTITLE1=Lonely Lady
TTITLE2=If You Two Time Moe One Time
TTITLE3=Ain't It Funny How These Country Songs Come True
TTITLE4=I'm Drinkin' Doubles
TTITLE5=How I Wish The Same Could Be Said For Me
TTITLE6=Abilene
TTITLE7=I Know Fool Well
TTITLE8=A Memory Walks The Floor
TTITLE9=Trying To Live His Life In A Song
TTITLE10=Let Old Sleepin' Memories Lie
TTITLE11=I Can't There From Here
EXTD=YEAR: 0  ID3G:   2
EXTT0=
EXTT1=
EXTT2=
EXTT3=
EXTT4=
EXTT5=
EXTT6=
EXTT7=
EXTT8=
EXTT9=
EXTT10=
EXTT11=
PLAYORDER=
